<svg width="81" height="60" viewBox="0 0 81 60" fill="none" xmlns="http://www.w3.org/2000/svg">
<rect x="0.625" y="0.625" width="79.75" height="58.75" rx="5.625" fill="white"/>
<path fill-rule="evenodd" clip-rule="evenodd" d="M7.5009 17.5H73.75V20H7.5L7.5009 17.5Z" fill="#D1D2D6"/>
<rect x="33.75" y="23.75" width="17.5" height="3.75" rx="0.363338" fill="#D1D2D6"/>
<rect x="33.75" y="30" width="17.5" height="3.75" rx="0.363338" fill="#D1D2D6"/>
<rect x="33.75" y="36.25" width="23.75" height="3.75" rx="0.363338" fill="#D1D2D6"/>
<rect x="33.75" y="42.5" width="8.75" height="3.75" rx="0.363338" fill="#D1D2D6"/>
<rect x="7.5" y="7.5" width="31.25" height="5" rx="0.363338" fill="#D1D2D6"/>
<rect x="68.75" y="7.5" width="5" height="5" rx="0.363338" fill="#D1D2D6"/>
<g clip-path="url(#clip0_40_4140)">
<rect x="7.5" y="23.75" width="21.25" height="28.75" rx="0.907811" fill="#EAEDF3"/>
<path fill-rule="evenodd" clip-rule="evenodd" d="M13.3225 27.5628C15.0494 26.8721 19.1247 25.8014 21.6114 27.0447C22.4439 27.461 22.9513 27.9664 23.2384 28.4869C23.6273 28.5402 23.9993 28.7147 24.2004 29.117C24.2692 29.2546 24.3471 29.4013 24.4305 29.5583C24.9753 30.5841 25.7546 32.0512 25.7546 34.2975C25.4092 34.6428 25.1925 35.748 25.1925 36.5769C25.1839 36.5596 25.1738 36.5421 25.1625 36.5245C25.2244 36.6576 25.2588 36.7859 25.2684 36.872C25.2854 37.0248 25.2082 37.2952 25.1131 37.6289C25.0022 38.0178 24.8668 38.4927 24.8272 38.9676C24.7684 39.6735 24.435 39.8254 24.2757 39.8132C24.2757 41.4662 23.2757 42.2483 22.6959 42.5824V44.3343C22.9788 44.2099 23.1991 44.4289 23.2829 44.576L23.7805 45.3407L28.7227 46.5769C28.9794 46.6979 29.4007 46.95 29.6851 47.2583C29.7226 47.2259 29.7581 47.1954 29.7914 47.1668L30.1929 47.5712V52.3139H29.9852C29.9846 52.3786 29.9841 52.4408 29.9835 52.5H6.24988L6.6578 47.4615C6.69488 47.2564 7.19181 46.7461 8.88283 46.3461C10.2765 46.0164 11.9842 45.577 13.0261 45.3035L13.4649 44.6308C13.5629 44.4592 13.8472 44.1896 14.2002 44.4837C14.2621 44.5353 14.392 44.6487 14.5708 44.8067V42.3506L14.5698 42.35C13.3639 41.5853 13.1359 40.4627 13.1727 39.997V39.4019C13.0711 39.5951 12.8959 39.7768 12.6203 39.7768C12.0924 39.7768 11.8677 38.2941 11.7849 37.7483L11.7747 37.6812C11.7632 37.6062 11.748 37.534 11.7331 37.4627L11.7331 37.4627C11.6528 37.0798 11.5786 36.726 12.1056 36.137C12.1592 36.0772 12.2127 36.0291 12.2657 35.9915C12.1447 34.9916 11.5608 34.4514 11.2524 34.2972C10.9053 30.4792 12.4719 28.8171 13.7002 28.2763C13.7451 28.211 13.7918 28.1458 13.8406 28.0809L13.3225 27.5628Z" fill="#9EA0A5"/>
</g>
<rect x="0.625" y="0.625" width="79.75" height="58.75" rx="5.625" stroke="#D1D2D6" stroke-width="1.25"/>
<defs>
<clipPath id="clip0_40_4140">
<rect x="7.5" y="23.75" width="21.25" height="28.75" rx="0.907811" fill="white"/>
</clipPath>
</defs>
</svg>
