<svg xmlns="http://www.w3.org/2000/svg" xmlns:xlink="http://www.w3.org/1999/xlink" width="171" height="31"><defs><path id="a" d="M0 .515h23.956V21H0z"/><path id="c" d="M.631.024H11.35V30.1H.631z"/></defs><g fill="none" fill-rule="evenodd"><path fill="#6E6A79;" d="M1.08 16.178h2.8l.026 13.3H1.081v-13.3zM1 13.964h2.986v-2.532H1v2.532z"/><path stroke="#6E6A79;" stroke-width=".5" d="M1.08 16.178h2.8l.026 13.3H1.081v-13.3zM1 13.964h2.986v-2.532H1v2.532z"/><path fill="#6E6A79;" d="M10.85 16.19a15.045 15.045 0 0 1 3.292-.386c1.866 0 3.243.39 4.132 1.173.888.782 1.333 1.998 1.333 3.652v8.849h-2.8v-8.475c0-1.867-1.057-2.8-3.171-2.8a8.416 8.416 0 0 0-2.906.506v10.769h-2.8V17.189c.801-.408 1.774-.74 2.92-1"/><path stroke="#6E6A79;" stroke-width=".5" d="M10.85 16.19a15.045 15.045 0 0 1 3.292-.386c1.866 0 3.243.39 4.132 1.173.888.782 1.333 1.998 1.333 3.652v8.849h-2.8v-8.475c0-1.867-1.057-2.8-3.171-2.8a8.416 8.416 0 0 0-2.906.506v10.769h-2.8V17.189c.801-.408 1.774-.74 2.92-1z"/><path fill="#6E6A79;" d="M24.738 28.118c-1.254-1.082-1.88-2.834-1.88-5.25 0-2.489.618-4.288 1.853-5.398 1.235-1.11 2.803-1.666 4.705-1.666 1.44 0 2.807.267 4.105.799v2.507c-1.352-.57-2.586-.854-3.705-.854-1.404 0-2.453.352-3.146 1.053-.693.703-1.04 1.818-1.04 3.346 0 1.598.338 2.768 1.014 3.505.675.738 1.759 1.105 3.252 1.105 1.208 0 2.425-.292 3.65-.879v2.505a9.964 9.964 0 0 1-4.103.853c-1.884 0-3.452-.541-4.705-1.626"/><path stroke="#6E6A79;" stroke-width=".5" d="M24.738 28.118c-1.254-1.082-1.88-2.834-1.88-5.25 0-2.489.618-4.288 1.853-5.398 1.235-1.11 2.803-1.666 4.705-1.666 1.44 0 2.807.267 4.105.799v2.507c-1.352-.57-2.586-.854-3.705-.854-1.404 0-2.453.352-3.146 1.053-.693.703-1.04 1.818-1.04 3.346 0 1.598.338 2.768 1.014 3.505.675.738 1.759 1.105 3.252 1.105 1.208 0 2.425-.292 3.65-.879v2.505a9.964 9.964 0 0 1-4.103.853c-1.884 0-3.452-.541-4.705-1.626z"/><path fill="#6E6A79;" d="M46.155 22.788c0-1.563-.293-2.731-.88-3.505-.586-.773-1.52-1.16-2.798-1.16-1.298 0-2.226.396-2.786 1.186-.56.791-.84 1.951-.84 3.479s.29 2.696.867 3.505c.577.809 1.497 1.213 2.759 1.213 2.452 0 3.678-1.573 3.678-4.718m-8.463 5.278c-1.076-1.208-1.613-2.968-1.613-5.278 0-4.673 2.132-7.01 6.398-7.01 2.15 0 3.766.598 4.851 1.8 1.084 1.198 1.626 2.935 1.626 5.21s-.56 4.024-1.679 5.25c-1.12 1.227-2.71 1.84-4.771 1.84-2.133 0-3.737-.604-4.812-1.812"/><path stroke="#6E6A79;" stroke-width=".5" d="M46.155 22.788c0-1.563-.293-2.731-.88-3.505-.586-.773-1.52-1.16-2.798-1.16-1.298 0-2.226.396-2.786 1.186-.56.791-.84 1.951-.84 3.479s.29 2.696.867 3.505c.577.809 1.497 1.213 2.759 1.213 2.452 0 3.678-1.573 3.678-4.718zm-8.463 5.278c-1.076-1.208-1.613-2.968-1.613-5.278 0-4.673 2.132-7.01 6.398-7.01 2.15 0 3.766.598 4.851 1.8 1.084 1.198 1.626 2.935 1.626 5.21s-.56 4.024-1.679 5.25c-1.12 1.227-2.71 1.84-4.771 1.84-2.133 0-3.737-.604-4.812-1.812z"/><path fill="#6E6A79;" d="M61.083 18.95a5.499 5.499 0 0 0-1.426-.573 6.233 6.233 0 0 0-1.533-.2c-2.524 0-3.786 1.501-3.786 4.504 0 1.493.285 2.66.854 3.504.568.846 1.563 1.267 2.985 1.267.817 0 1.506-.096 2.066-.292.56-.196.84-.453.84-.774V18.95zm2.772-8.45v16.153c0 .71-.293 1.31-.88 1.799-.586.488-1.324.848-2.212 1.08-.89.23-1.804.345-2.746.345-1.902 0-3.465-.537-4.692-1.612-1.225-1.074-1.838-2.954-1.838-5.638 0-2.15.524-3.828 1.572-5.037 1.05-1.208 2.603-1.812 4.665-1.812.48 0 1.035.061 1.666.185a6.787 6.787 0 0 1 1.693.56V10.5h2.772z"/><path stroke="#6E6A79;" stroke-width=".5" d="M61.083 18.95a5.499 5.499 0 0 0-1.426-.573 6.233 6.233 0 0 0-1.533-.2c-2.524 0-3.786 1.501-3.786 4.504 0 1.493.285 2.66.854 3.504.568.846 1.563 1.267 2.985 1.267.817 0 1.506-.096 2.066-.292.56-.196.84-.453.84-.774V18.95zm2.772-8.45v16.153c0 .71-.293 1.31-.88 1.799-.586.488-1.324.848-2.212 1.08-.89.23-1.804.345-2.746.345-1.902 0-3.465-.537-4.692-1.612-1.225-1.074-1.838-2.954-1.838-5.638 0-2.15.524-3.828 1.572-5.037 1.05-1.208 2.603-1.812 4.665-1.812.48 0 1.035.061 1.666.185a6.787 6.787 0 0 1 1.693.56V10.5h2.772z"/><path fill="#6E6A79;" d="M71.025 18.816c-.533.498-.88 1.341-1.04 2.532h6.479c-.126-1.137-.445-1.967-.96-2.492-.516-.524-1.271-.786-2.266-.786-.943 0-1.68.248-2.213.746m6.865-1.026c.968 1.341 1.444 3.22 1.426 5.638h-9.383c.09 1.316.475 2.314 1.16 2.998.684.685 1.656 1.027 2.92 1.027a8.81 8.81 0 0 0 2.344-.307 8.703 8.703 0 0 0 1.973-.786v2.611c-1.386.605-2.976.906-4.771.906-2.01 0-3.586-.607-4.732-1.825-1.146-1.216-1.72-2.946-1.72-5.184 0-2.293.543-4.047 1.627-5.265 1.083-1.217 2.612-1.825 4.585-1.825 2.079 0 3.603.67 4.571 2.012"/><path stroke="#6E6A79;" stroke-width=".5" d="M71.025 18.816c-.533.498-.88 1.341-1.04 2.532h6.479c-.126-1.137-.445-1.967-.96-2.492-.516-.524-1.271-.786-2.266-.786-.943 0-1.68.248-2.213.746zm6.865-1.026c.968 1.341 1.444 3.22 1.426 5.638h-9.383c.09 1.316.475 2.314 1.16 2.998.684.685 1.656 1.027 2.92 1.027a8.81 8.81 0 0 0 2.344-.307 8.703 8.703 0 0 0 1.973-.786v2.611c-1.386.605-2.976.906-4.771.906-2.01 0-3.586-.607-4.732-1.825-1.146-1.216-1.72-2.946-1.72-5.184 0-2.293.543-4.047 1.627-5.265 1.083-1.217 2.612-1.825 4.585-1.825 2.079 0 3.603.67 4.571 2.012z"/><g transform="translate(86.4 9.776)"><mask id="b" fill="#6E6A79;"><use xlink:href="#a"/></mask><path fill="#00ADEF" d="M10.959 15.271c.68-.751 1.134-1.836 1.367-3.255a5.969 5.969 0 0 1-2.062-2.387 7.068 7.068 0 0 1-.716-3.124c0-.463.044-.926.13-1.39h-.217c-1.157 0-2.12.558-2.886 1.672-.766 1.114-1.15 2.684-1.15 4.709 0 1.591.31 2.806.933 3.645.622.84 1.352 1.259 2.192 1.259.925 0 1.728-.376 2.409-1.129m12.694-7.247c.203.376.303.853.303 1.432 0 1.389-.419 2.213-1.258 2.474-1.736.607-3.645.954-5.728 1.041-.55 2.43-1.636 4.377-3.255 5.838C12.093 20.27 10.257 21 8.202 21c-1.735 0-3.218-.419-4.448-1.258-1.23-.84-2.163-1.953-2.799-3.342C.318 15.01 0 13.507 0 11.886c0-2.198.42-4.158 1.26-5.88.837-1.721 1.995-3.066 3.47-4.037C6.206 1 7.84.515 9.634.515c2.2 0 3.972.76 5.318 2.279 1.345 1.519 2.133 3.392 2.365 5.62 1.36-.087 2.98-.376 4.86-.868a2.6 2.6 0 0 1 .608-.087c.376 0 .665.189.868.565" mask="url(#b)"/></g><path fill="#00ADEF" d="M107.383 29.04c-.449-1.156-.673-3.009-.673-5.555 0-3.76.536-7.334 1.606-10.72.26-.838.687-1.453 1.28-1.844.593-.39 1.426-.586 2.497-.586.578 0 .982.073 1.215.217.23.145.346.42.346.825 0 .463-.217 1.505-.65 3.124a69.388 69.388 0 0 0-.695 3.017c-.174.854-.319 1.916-.434 3.19.781-2.257 1.714-4.167 2.8-5.73 1.085-1.562 2.199-2.726 3.34-3.493 1.144-.766 2.221-1.15 3.235-1.15 1.012 0 1.728.232 2.148.694.42.464.629 1.172.629 2.127 0 .926-.275 2.604-.824 5.034a48.806 48.806 0 0 0-.478 2.344c1.446-3.559 3.052-6.148 4.818-7.769 1.764-1.62 3.413-2.43 4.947-2.43 1.88 0 2.82.94 2.82 2.821 0 1.128-.318 3.168-.954 6.12-.55 2.517-.825 4.18-.825 4.99 0 1.158.42 1.736 1.259 1.736.578 0 1.266-.354 2.062-1.063.795-.708 1.859-1.86 3.19-3.45.347-.405.737-.608 1.171-.608.376 0 .673.174.89.521.217.347.325.825.325 1.432 0 1.157-.275 2.055-.823 2.691-1.246 1.534-2.583 2.792-4.016 3.776-1.432.983-3.06 1.475-4.881 1.475-1.477 0-2.59-.427-3.343-1.28-.752-.852-1.128-2.09-1.128-3.71 0-.81.202-2.257.607-4.34.376-1.823.565-3.082.565-3.776 0-.462-.16-.695-.478-.695-.376 0-.911.485-1.606 1.454-.694.97-1.388 2.25-2.082 3.841a31.165 31.165 0 0 0-1.693 5.034c-.318 1.39-.688 2.315-1.107 2.778-.42.463-1.092.694-2.018.694-.954 0-1.671-.455-2.148-1.367-.477-.911-.717-2.018-.717-3.32 0-1.099.145-2.691.434-4.774.232-1.851.347-3.066.347-3.645 0-.462-.158-.695-.476-.695-.434 0-.985.521-1.65 1.563-.666 1.041-1.31 2.373-1.931 3.992a38.181 38.181 0 0 0-1.497 4.774c-.32 1.36-.688 2.279-1.107 2.756-.42.478-1.078.716-1.975.716-1.1 0-1.873-.578-2.322-1.736"/><path fill="#00ADEF" d="M139.672 29.04c-.449-1.156-.673-3.009-.673-5.555 0-3.76.536-7.334 1.606-10.72.26-.838.687-1.453 1.28-1.844.593-.39 1.425-.586 2.496-.586.579 0 .983.073 1.216.217.23.145.346.42.346.825 0 .463-.217 1.505-.651 3.124a66.38 66.38 0 0 0-.694 3.038c-.174.868-.319 1.94-.434 3.212.954-2.488 2.025-4.514 3.212-6.076 1.186-1.562 2.35-2.676 3.493-3.342 1.143-.665 2.192-.998 3.146-.998 1.881 0 2.821.94 2.821 2.821 0 1.128-.318 3.168-.954 6.12-.55 2.517-.825 4.18-.825 4.99 0 1.158.42 1.736 1.259 1.736.579 0 1.265-.354 2.062-1.063.794-.708 1.858-1.86 3.19-3.45.346-.405.737-.608 1.17-.608.377 0 .674.174.891.521.217.347.325.825.325 1.432 0 1.157-.275 2.055-.824 2.691-1.245 1.534-2.583 2.792-4.015 3.776-1.432.983-3.06 1.475-4.882 1.475-1.476 0-2.59-.427-3.342-1.28-.753-.852-1.129-2.09-1.129-3.71 0-.81.203-2.257.608-4.34.376-1.823.565-3.082.565-3.776 0-.462-.16-.695-.478-.695-.376 0-.905.485-1.584 1.454-.68.97-1.375 2.25-2.084 3.841a29.817 29.817 0 0 0-1.713 5.034c-.32 1.36-.688 2.279-1.107 2.756-.42.478-1.079.716-1.975.716-1.1 0-1.874-.578-2.322-1.736"/><g transform="translate(159.2 .676)"><mask id="d" fill="#6E6A79;"><use xlink:href="#c"/></mask><path fill="#00ADEF" d="M4.493 5.948c-.607-.564-.911-1.352-.911-2.365 0-1.013.397-1.859 1.193-2.54C5.571.365 6.562.024 7.748.024c1.07 0 1.939.261 2.604.782.665.52.998 1.259.998 2.213 0 1.158-.375 2.077-1.128 2.756-.753.68-1.75 1.02-2.995 1.02-1.215 0-2.126-.281-2.734-.846M1.151 29.536c-.347-.375-.52-.969-.52-1.78 0-.23.028-.635.086-1.215.463-5.295 1.23-10.111 2.3-14.452.232-.897.615-1.525 1.15-1.888.536-.361 1.396-.542 2.583-.542 1.244 0 1.866.506 1.866 1.52 0 .144-.028.419-.087.823-1.302 6.192-2.083 11.386-2.343 15.58-.058.927-.333 1.579-.825 1.954-.492.376-1.258.564-2.3.564-.926 0-1.562-.188-1.91-.564" mask="url(#d)"/></g></g></svg>